<svg xmlns="http://www.w3.org/2000/svg" xmlns:xlink="http://www.w3.org/1999/xlink" version="1.1" x="0px" y="0px" viewBox="0 0 48 60" enable-background="new 0 0 48 48" xml:space="preserve">
<g>
<ellipse fill="#000000" cx="22.3" cy="6.3" rx="4.6" ry="4.3"/><path fill="#000000" d="M46.8,23.7c-0.4-0.2-9.3-5.8-25.1-1.4c-14,3.9-18.6-0.7-18.7-0.8c-0.5-0.6-1.4-0.6-2-0.1   c-0.6,0.5-0.7,1.4-0.1,2c0.2,0.2,3,3.3,10.7,3.3c2.9,0,6.5-0.5,10.9-1.7c14.4-4.1,22.7,1,22.7,1c0.7,0.4,1.6,0.2,2-0.4   C47.7,25,47.5,24.1,46.8,23.7z"/>
<path fill="#000000" d="M13,21.7c0.1,0,0.2,0,0.3,0c1.1-0.1,2-1.1,1.9-2.2c0.1-0.3,0.7-1,2.8-1.4V21c0,0,7.4-2.1,10.3-2.3l0-2.3   c5.4-2.3,7.1-8.2,7.5-11.6c0.1-1.1-0.7-2.2-1.9-2.3c-1.2-0.1-2.3,0.7-2.4,1.8c0,0.4-1.2,9.2-8.8,9.2c-0.1,0-0.1,0-0.2,0   c-5-0.1-8.4,0.8-10.3,2.7c-1.5,1.6-1.3,3.2-1.3,3.5C11,20.9,11.9,21.7,13,21.7z"/>
<path fill="#000000" d="M28,25.8L18,28l-0.2,2.3c-0.1,0.9-0.5,2.2-0.8,2.3c0,0-1.1,0.1-3.8-2.7C12.3,29,10.9,29,10,29.7   c-0.9,0.8-1,2.1-0.1,2.9c1,1.1,3.9,4.1,7.1,4.1c0.5,0,1-0.1,1.5-0.2c2.9-1,4.8-5.4,4.9-6.6l4.1,7.1l-2,6.4   c-0.3,1.1,0.3,2.2,1.5,2.6c0.2,0.1,0.4,0.1,0.6,0.1c1,0,1.8-0.6,2.1-1.5l2.2-7.1c0.1-0.5,0.1-0.9-0.1-1.4L28,25.8z"/></g>
</svg>
