<svg xmlns="http://www.w3.org/2000/svg" version="1.1" viewBox="-5.0 -10.0 110.0 135.0">
 <path d="m45.293 11.535c-0.082031 0-0.16406 0-0.24609 0.003906-1.7031 0.13281-3.0547 0.69141-4.1875 2.0039-0.066406 0.078125-0.12891 0.15625-0.19141 0.23438-0.0625 0.082031-0.125 0.16406-0.17969 0.24609-0.058593 0.082031-0.11328 0.16797-0.16797 0.25391-0.054687 0.085937-0.10547 0.17188-0.15625 0.26172-0.050781 0.089844-0.097656 0.17969-0.14453 0.26953s-0.089843 0.18359-0.12891 0.27344c-0.039063 0.09375-0.082031 0.1875-0.11719 0.28125-0.035157 0.09375-0.070313 0.19141-0.10156 0.28516-0.03125 0.097656-0.058594 0.19531-0.085937 0.29297-0.027344 0.097656-0.050782 0.19531-0.074219 0.29688-0.023438 0.097657-0.042969 0.19922-0.058594 0.29688-0.015625 0.10156-0.03125 0.19922-0.046875 0.30078-0.011719 0.10156-0.019531 0.19922-0.027344 0.30078-0.007812 0.10156-0.011718 0.20312-0.015625 0.30469-0.003906 0.10156-0.003906 0.20312 0 0.30469 0.003907 0.10156 0.007813 0.20312 0.015625 0.30469 0.13672 1.6602 0.82812 2.9805 2.1016 4.0469 1.1953 1 2.5391 1.3203 4.0742 1.293 1.7227-0.20312 3.1445-0.875 4.2344-2.2578 0.058594-0.078124 0.11719-0.15234 0.17188-0.23437 0.054687-0.078126 0.10937-0.16016 0.16406-0.24219 0.050781-0.082031 0.10156-0.16406 0.14844-0.25 0.046874-0.085938 0.09375-0.17188 0.13672-0.25781 0.042969-0.085938 0.085938-0.17188 0.125-0.26172 0.039063-0.089844 0.074219-0.17969 0.10938-0.26953 0.035157-0.089844 0.066407-0.18359 0.097657-0.27734s0.058593-0.18359 0.082031-0.27734c0.027343-0.09375 0.046875-0.1875 0.070312-0.28125 0.019531-0.09375 0.039063-0.19141 0.054688-0.28516 0.015625-0.097656 0.03125-0.19141 0.042969-0.28906 0.011718-0.097656 0.019531-0.19141 0.027343-0.28906 0.007813-0.097657 0.011719-0.19531 0.011719-0.29297s0-0.19531-0.003906-0.29297c-0.003906-0.097656-0.007813-0.19141-0.015625-0.28906-0.007813-0.097657-0.019531-0.19531-0.03125-0.29297s-0.023438-0.19531-0.039063-0.29297c-0.015625-0.097656-0.035156-0.19141-0.054687-0.28906-0.019531-0.097657-0.042969-0.19141-0.070313-0.28516s-0.054687-0.19141-0.082031-0.28516c-0.03125-0.09375-0.0625-0.1875-0.097656-0.27734-0.035157-0.09375-0.074219-0.18359-0.11328-0.27344-0.039063-0.089844-0.082032-0.17969-0.125-0.26562-0.042969-0.089844-0.089844-0.17578-0.13672-0.26172-0.046875-0.085937-0.10156-0.16797-0.15234-0.25391-0.054687-0.082031-0.10938-0.16406-0.16406-0.24609-0.058593-0.082031-0.11719-0.16016-0.17578-0.23438-0.0625-0.078125-0.125-0.15234-0.1875-0.22656-0.066406-0.074219-0.13281-0.14453-0.19922-0.21875-0.070312-0.070313-0.13672-0.14062-0.21094-0.20703-0.070313-0.066406-0.14453-0.13281-0.21875-0.19531s-0.15234-0.125-0.23047-0.1875c-0.066406-0.050781-0.13281-0.10156-0.19922-0.14844-0.066407-0.046874-0.13281-0.09375-0.20313-0.13672-0.070312-0.042969-0.13672-0.089844-0.20703-0.13281-0.070312-0.042969-0.14062-0.082031-0.21484-0.12109-0.074219-0.039063-0.14453-0.078126-0.21875-0.11328-0.074219-0.035156-0.14844-0.070312-0.22266-0.10156s-0.15234-0.0625-0.23047-0.089844c-0.078124-0.027344-0.15234-0.058594-0.23047-0.082031-0.078125-0.027344-0.15625-0.050781-0.23438-0.070313-0.078125-0.023437-0.16016-0.042968-0.23828-0.0625-0.078126-0.019531-0.16016-0.035156-0.24219-0.050781s-0.16406-0.027344-0.24219-0.039063c-0.082031-0.011718-0.16016-0.023437-0.24219-0.03125-0.082031-0.007812-0.16406-0.015624-0.24609-0.019531-0.082031-0.003906-0.16406-0.007812-0.24609-0.007812zm-15.449 6.6016c-0.11719 0.003906-0.23047 0.007812-0.34766 0.019531-1.3711 0.14062-2.5156 0.74609-3.3867 1.8242-0.26562 0.33203-0.48438 0.69141-0.70312 1.0586 1.9219 0.84375 3.8594 1.7266 5.8242 2.4688l1.1758 0.44922c0.66016-1.0039 1.1836-1.6055 2.3086-2.0898-0.41797-1.3633-1.25-2.4766-2.5234-3.1562-0.70703-0.37891-1.543-0.58984-2.3516-0.57422zm-5.8398 5.0469-4.4023 6.7031c-0.76953 1.1719-1.7891 2.4062-2.2734 3.7266-0.039063 0.10938-0.074219 0.22266-0.10547 0.33594s-0.058594 0.22656-0.082031 0.33984c-0.023437 0.11328-0.042969 0.23047-0.058594 0.34766-0.015625 0.11719-0.027343 0.23047-0.035156 0.34766s-0.011719 0.23438-0.007813 0.35156c0 0.11719 0.007813 0.23047 0.015626 0.34766 0.007812 0.11719 0.023437 0.23438 0.039062 0.34766 0.019531 0.11719 0.039062 0.23047 0.0625 0.34375 0.28516 1.2969 1.0664 2.3711 2.1875 3.0781 0.73047 0.46094 1.543 0.73047 2.3906 0.86719 0.22266-0.55078 0.51172-1.043 0.84375-1.5352l8.4062-12.691c-1.0664-0.55469-2.2305-0.96875-3.3398-1.4414-1.082-0.46094-2.5156-1.2344-3.6484-1.4648zm13.832 0.13672c-0.19141-0.003906-0.38281 0-0.57031 0.019532-1.1133 0.1875-2.0352 0.72656-2.6914 1.6523-2.3359 3.3125-4.4648 6.793-6.7031 10.176-1.1602 1.75-2.3242 3.4883-3.457 5.2539-0.50391 0.78125-1.168 1.6523-1.4961 2.5195-0.51953 1.3711-0.50781 2.9336-0.26172 4.3594l0.019531 0.11328-5.5742 13.32c-3.2969 2.0039-6.5742 4.043-9.832 6.1133l-2.793 1.7656c-0.37109 0.23828-0.79687 0.46094-1.125 0.75-0.375 0.32812-0.63672 0.81641-0.76562 1.2969-0.011719 0.042969-0.019532 0.085938-0.03125 0.13281-0.007813 0.042969-0.019532 0.085937-0.027344 0.13281-0.007813 0.042969-0.015625 0.089844-0.019532 0.13281-0.003906 0.042968-0.007812 0.089844-0.011718 0.13281-0.003906 0.042969-0.003906 0.089844-0.003906 0.13281v0.13281c0 0.042969 0.003906 0.089844 0.007812 0.13281 0.003906 0.042968 0.007812 0.089844 0.015625 0.13281 0.007813 0.042969 0.011719 0.085938 0.019531 0.13281 0.007813 0.042969 0.019532 0.085937 0.027344 0.13281 0.011719 0.042969 0.019531 0.089844 0.035156 0.13281 0.011719 0.042968 0.027344 0.085937 0.039063 0.125 0.015625 0.042968 0.027343 0.085937 0.046875 0.125 0.015625 0.042968 0.035156 0.082031 0.054687 0.125 0.019531 0.039062 0.035157 0.078125 0.058594 0.12109 0.019531 0.039062 0.042969 0.078124 0.066406 0.11719 0.023438 0.039063 0.046875 0.082031 0.070313 0.12109 0.023437 0.039062 0.050781 0.078125 0.078125 0.11328 0.027343 0.039062 0.058593 0.074219 0.085937 0.11328 0.027344 0.035157 0.058594 0.070313 0.089844 0.10547s0.0625 0.070312 0.09375 0.10156 0.066406 0.0625 0.10156 0.09375c0.035157 0.03125 0.070313 0.0625 0.10547 0.089844 0.035157 0.03125 0.074219 0.058594 0.10938 0.085938 0.039063 0.027344 0.074219 0.054687 0.11328 0.082031 0.039062 0.027344 0.078124 0.050781 0.11719 0.074219 0.039063 0.023437 0.082031 0.046875 0.12109 0.066406 0.042969 0.023438 0.085937 0.042969 0.125 0.0625 0.042969 0.019531 0.082031 0.039062 0.125 0.058594 0.042969 0.015625 0.085937 0.03125 0.13281 0.046875 0.042969 0.015625 0.089844 0.03125 0.13281 0.042969 0.042968 0.011718 0.089844 0.023437 0.13281 0.035156 0.45312 0.10547 1.0625 0.125 1.5-0.046875 0.68359-0.26172 1.3477-0.68359 1.9844-1.0469 1.25-0.70312 2.4805-1.4375 3.7188-2.1562l5.9336-3.5c1.3047-0.76172 2.6602-1.4766 3.9297-2.2969 0.36719-0.23828 0.66016-0.46875 0.94141-0.80859 0.85938-1.0469 1.5469-2.3125 2.2734-3.4609 1.5664-2.4805 3.0859-5 4.7305-7.4297 0.58594-0.027344 1.3047-0.27344 1.8672-0.16406 1.0234 0.20312 3.582 1.4102 4.6641 1.8828l7.2188 3.1328c-0.25781 1.0742-0.49609 2.1523-0.71484 3.2383-0.67578 3-1.418 5.9805-2.0508 8.9922-0.17578 0.83984-0.50781 1.7773-0.51172 2.6328 0 0.46484 0.15234 0.94141 0.39453 1.3359 0.023438 0.039063 0.046876 0.074219 0.070313 0.10938s0.050781 0.074219 0.078125 0.10547c0.027344 0.035156 0.054688 0.070313 0.082031 0.10547 0.027344 0.035156 0.058594 0.066406 0.089844 0.097656s0.0625 0.066406 0.09375 0.09375c0.03125 0.03125 0.066406 0.058594 0.097656 0.089844 0.035157 0.027344 0.066407 0.058594 0.10156 0.085937 0.035156 0.027344 0.070312 0.054688 0.10547 0.078125 0.035157 0.027344 0.074219 0.050782 0.10938 0.074219 0.039062 0.023437 0.074218 0.046875 0.11328 0.070313 0.039062 0.023437 0.078125 0.042968 0.11719 0.0625 0.039063 0.019531 0.082032 0.035156 0.12109 0.054687s0.082031 0.035156 0.12109 0.050781c0.042968 0.015625 0.082031 0.03125 0.125 0.046875 0.042968 0.015625 0.082031 0.027344 0.125 0.039063 0.042968 0.011718 0.085937 0.023437 0.12891 0.035156 0.75 0.17578 1.5273 0.027344 2.168-0.39062 0.41406-0.26953 0.84766-0.68359 1.0391-1.1445 0.33594-0.80859 0.47656-1.7812 0.67188-2.6367l0.96484-4.168 1.4961-6.3516c0.30469-1.2812 0.64453-2.5547 0.89844-3.8438 0.13281-0.67969 0.22266-1.6055-0.17969-2.2148-0.18359-0.27344-0.48438-0.51953-0.75-0.71875-0.79688-0.59766-1.6836-1.1055-2.5078-1.6641-1.5156-1.0273-3.0039-2.0938-4.5234-3.1172-1.8086-1.2148-3.6797-2.4102-5.3906-3.7617 1.5039-3.3867 2.9453-6.7969 4.3281-10.234 0.61719 1.1953 1.1992 2.4102 1.7383 3.6406 0.33984 0.75781 0.64453 1.582 1.082 2.2852 0.19922 0.32031 0.50781 0.75781 0.87891 0.88672 0.31641 0.10938 0.67969 0.12109 1.0156 0.11328 2.3984-0.046876 4.8242-0.32031 7.2188-0.47656 1.582-0.097656 3.1602-0.21094 4.7383-0.33984 0.67969-0.050781 1.3828-0.050781 2.0547-0.14844 0.35938-0.050782 0.71094-0.15625 1.0352-0.33203 0.51172-0.27734 0.82031-0.75781 0.96094-1.3203 0.011719-0.042969 0.019531-0.082031 0.027344-0.125 0.007812-0.042969 0.011718-0.085938 0.019531-0.125 0.003906-0.042969 0.011719-0.085938 0.015625-0.125 0.003906-0.042969 0.007812-0.085938 0.007812-0.12891v-0.125c0-0.042969 0-0.085938-0.003906-0.125-0.003906-0.042969-0.007812-0.085938-0.011718-0.12891-0.003907-0.042969-0.011719-0.085938-0.019532-0.125-0.007812-0.042969-0.015625-0.082032-0.023437-0.125-0.007813-0.042969-0.019531-0.082032-0.03125-0.125-0.011719-0.039063-0.023438-0.082032-0.039063-0.12109-0.011718-0.039063-0.03125-0.078125-0.046875-0.12109-0.015625-0.039062-0.03125-0.078125-0.046875-0.11719-0.019531-0.039062-0.039062-0.078124-0.058594-0.11328-0.019531-0.039062-0.039062-0.074219-0.0625-0.11328-0.019531-0.035156-0.042968-0.074219-0.066406-0.10938-0.28516-0.4375-0.71484-0.82031-1.2383-0.92969-1.1328-0.23828-3.4023 0.0625-4.6133 0.14844-1.9766 0.14844-3.9531 0.27734-5.9297 0.39062-0.73047 0.046875-1.4688 0.14453-2.1992 0.16406-1.0234-2.4297-2.0625-4.8672-3.0508-7.3086-0.28516-0.70703-0.16797-1.3906-0.33984-2.1094-0.44922-1.8711-2.125-3.6328-3.8906-4.3359-0.52734-0.21094-1.1055-0.33203-1.6797-0.34766zm37.82 35.488c-0.72266 0.82031-1.3633 1.7188-2.0391 2.582l-3.7109 4.7578c-2.082 2.6992-4.25 5.3438-6.2344 8.1172-1.0508-0.66406-2.1562-1.2344-3.2305-1.8594-1.4102-0.82031-2.8047-1.6914-4.2617-2.4297-1.4023 1.543-2.6953 3.1992-4.043 4.793-3.6992 4.3711-7.3008 8.8242-10.953 13.234l2.8789-0.007812 13.523-13.168c1.9492 1.4219 3.9492 2.7734 6 4.0508 0.66406-0.70312 1.3164-1.4219 1.9922-2.1172l5.9375-6.375 2.25-2.4219c0.48438-0.51953 0.96094-1.0781 1.5-1.543 0.82422 0.63672 1.5391 1.4492 2.2617 2.1953l3.168 3.2617c3.0469 3.0938 6.0586 6.2266 9.0312 9.3906 2.2578 2.4062 4.4883 4.8984 6.8555 7.1953l0.91797-0.40234c-2.3242-3.2461-4.75-6.4219-7.1211-9.6328-4.2188-5.7461-8.4883-11.461-12.801-17.141-0.34375-0.44531-1.582-2.2773-1.918-2.4805z"/>
</svg>