<svg xmlns="http://www.w3.org/2000/svg" version="1.1" viewBox="-5.0 -10.0 110.0 135.0">
 <path d="m89.281 12.207-0.042969-0.054687c-0.015625-0.019532-0.035156-0.042969-0.054687-0.070313l-0.011719-0.015625c-0.57422-0.66016-1.5469-0.92969-2.6758-0.8125-1.1875 0.12109-2.5312 0.66406-3.7656 1.6289-0.10156 0.078126-0.20703 0.16406-0.3125 0.25781l-0.019531 0.015625-6.9727 5.9414c-0.078125 0.074219-0.19141 0.10938-0.30078 0.082032l-7.6133-1.8516c-0.17578-0.042969-0.28125-0.21875-0.23828-0.39062 0.019531-0.078125 0.0625-0.14062 0.125-0.18359l2.1484-1.6719c0.054687-0.042969 0.10156-0.085937 0.14844-0.13281 0.24219-0.25 0.35938-0.57422 0.35938-0.91016-0.003907-0.35156-0.13281-0.72266-0.39063-1.0508-0.0625-0.082031-0.13672-0.16016-0.21484-0.23828-0.40234-0.38672-0.92578-0.61719-1.4453-0.67188-0.50781-0.054687-1.0039 0.050781-1.3711 0.33594l-4.4492 3.4688c-0.078125 0.066407-0.18359 0.097657-0.28906 0.070313l-10.094-2.4844-3.3555 2.6133 4.3008 1.8398c-4.6328-0.36328-9.3906-0.007813-13.523 1.0547-9.1719 2.3633-16.875 8.1562-21.691 16.316-4.8164 8.1562-6.1641 17.703-3.8008 26.875 0.36719 1.4258 0.83203 2.8281 1.3711 4.1875-1.9141 2.418-3.3086 4.8945-4.0898 7.3203-1.1367 3.5234-0.94141 6.8242 0.54297 9.293 1.2266 2.0352 3.2461 3.4062 5.8398 3.9648 0.86328 0.18359 1.7852 0.27734 2.7539 0.27734 2.0703 0 4.3594-0.41797 6.7578-1.2461 0.015625-0.003906 0.027344-0.019532 0.042969-0.027344 0.042969-0.019531 0.078125-0.039062 0.11328-0.066406 0.03125-0.023438 0.0625-0.046875 0.09375-0.074219 0.027344-0.03125 0.050781-0.0625 0.074219-0.097656 0.023437-0.035157 0.042969-0.070313 0.058593-0.10547 0.015626-0.035156 0.023438-0.074219 0.03125-0.11328 0.007813-0.042969 0.015626-0.085938 0.015626-0.12891 0-0.015624 0.007812-0.03125 0.003906-0.050781-0.003906-0.027343-0.015625-0.046875-0.023438-0.074219-0.003906-0.027343 0-0.050781-0.011718-0.078124-0.007813-0.015626-0.019532-0.027344-0.027344-0.046876-0.015625-0.039062-0.039063-0.074218-0.0625-0.10937-0.023438-0.035157-0.050782-0.066407-0.078125-0.097657-0.027344-0.027343-0.058594-0.046875-0.09375-0.070312-0.035157-0.023438-0.070313-0.046875-0.11328-0.0625-0.035157-0.015625-0.074219-0.023438-0.11328-0.03125-0.042968-0.007813-0.085937-0.015625-0.12891-0.015625-0.015625 0-0.035156-0.007813-0.050781-0.003906-4.3594 0.40234-7.207-0.52344-8.2344-2.6875-0.89453-1.875-0.36328-4.5977 1.2969-7.457 4.0625 5.418 9.5312 9.5508 15.914 11.949 4.0117 1.5078 8.2031 2.2656 12.418 2.2656 2.9688 0 5.9492-0.375 8.8867-1.1328 9.1719-2.3633 16.875-8.1562 21.691-16.316 4.8125-8.1562 6.1641-17.703 3.8008-26.875-0.58984-2.2891-1.4062-4.5195-2.4258-6.625-0.097656-0.19922-0.28906-0.31641-0.49219-0.34375l4.0859-3.1875c0.36719-0.28516 0.59375-0.74219 0.66016-1.2461 0.070313-0.51953-0.023437-1.082-0.30078-1.5703-0.054688-0.097656-0.11328-0.18359-0.17578-0.26562-0.25781-0.33203-0.58594-0.55078-0.92578-0.63672-0.32813-0.085937-0.66797-0.046875-0.97266 0.125-0.058593 0.03125-0.11328 0.070313-0.16406 0.10938l-2.1523 1.6797c-0.011719 0.011718-0.027344 0.019531-0.042969 0.027344l-0.03125 0.015624c-0.015625 0.007813-0.027344 0.011719-0.050781 0.015626l-0.007813 0.003906c-0.011718 0.003906-0.019531 0.003906-0.03125 0.003906h-0.054687c-0.042969-0.003906-0.082031-0.011719-0.16406-0.054688-0.019531-0.015624-0.039062-0.027343-0.054687-0.046874l-0.003906-0.003907-0.011719-0.023437c-0.011719-0.011719-0.019531-0.027344-0.027344-0.042969l-0.015625-0.03125c-0.007812-0.019531-0.015625-0.039063-0.019531-0.058594-0.003906-0.011719-0.003906-0.019531-0.003906-0.03125v-0.03125l-0.1875-7.6016c-0.011719-0.10938 0.035156-0.22266 0.13281-0.29297l7.7812-5.6562c0.09375-0.066406 0.17188-0.12891 0.24219-0.17969 1.2734-0.99219 2.125-2.2148 2.5156-3.3828 0.375-1.125 0.31641-2.1914-0.21484-2.9219zm-74.316 49.621c-1.6523-6.418-1.4102-13.023 0.61719-19.172 1.5117 1.4961 2.8398 1.9258 4.0938 1.6797 1.5117-0.29688 2.9766-1.5508 4.5508-3.0859 0.73047-0.71094 1.2812-0.64844 1.7773-0.14062 0.37891 0.38672 0.67969 1.0586 1.0234 1.8242 0.67969 1.5078 1.5312 3.4023 3.2852 3.6758 2.5195 0.39453 3.9961 1.0352 4.8555 1.7656-5.0508 3.7344-9.7031 7.7422-16.406 14-0.98828 0.92188-1.8945 1.8633-2.7227 2.8164-0.40625-1.1016-0.77734-2.2227-1.0703-3.3633zm66.188-17.055c1.543 5.9922 1.4375 12.145-0.23047 17.938-1.3672-0.375-4.7656-1.1562-5.9375 1.1562-0.23047 0.45703-0.47656 0.87109-0.73438 1.2422-0.97266 1.418-2.0703 2.1992-3.0625 2.5586-1.0273 0.37109-1.9609 0.29688-2.543 0-0.070312-0.035157-0.13672-0.074219-0.19922-0.11719l-0.023437-0.015625c-1.6914-1.1875-1.4375-3.7031-1.2891-5.1797 0.046876-0.47266 0.082032-0.81641 0.070313-0.83594-0.085937-0.125-0.17578-0.24609-0.26562-0.35156-1.1914-1.4531-2.7344-1.6875-4.0664-1.5-1.3633 0.19141-2.5078 0.82031-2.875 1.0703-0.027344 0.019531-0.050782 0.035157-0.0625 0.046875-2.7812 2.2812-4.3672 1.3906-5.668-0.19531-0.35547-0.43359-0.68359-0.91406-1.0078-1.3945-0.42578-0.625-0.84766-1.2461-1.3086-1.7188-1.0156-1.043-2.2969-1.3438-4.5078 0.81641-1.4219 1.3867-2.8945 1.6523-3.8984 1.832-0.41016 0.074219-0.73438 0.13281-0.875 0.23828-0.32031 0.23828 0.24219 1.1484 2.7266 4.4805 1.1992 1.6094 0.76172 2.4883-0.17188 3.1836-0.32031 0.23828-0.69922 0.44531-1.082 0.66016-1.293 0.71094-2.6719 1.4727-1.2578 3.6758 0.77734 1.2109 0.74219 1.8711 0.20313 2.2148-0.58594 0.375-1.8008 0.1875-3.1484-0.023437-1.1367-0.17578-2.3711-0.36719-3.2891-0.24219-0.87109 0.12109-1.4453 0.57422-1.2812 1.7383 0.046874 0.32031-0.078126 0.75391-0.23047 1.2773-0.32031 1.1016-0.77344 2.6719 0.23828 3.8984 0.99609 1.207 2.793 2.3438 4.4805 3.4102 1.3477 0.85156 2.6289 1.6602 3.4258 2.4648-8.9961-1.2969-17.344-6.1328-22.855-13.707 0.73828-1.0859 1.6367-2.1797 2.6719-3.2383 6.2891-6.4336 16.047-13.672 21.289-17.559 1.1484-0.85156 2.1406-1.5898 2.8359-2.1211 0.28125-0.21484 0.33594-0.62109 0.11719-0.90234-0.21484-0.28125-0.62109-0.33594-0.90234-0.11719-0.6875 0.52734-1.6758 1.2617-2.8203 2.1094-5.2695 3.9102-15.082 11.188-21.445 17.695-4.6094 4.7148-6.5508 9.9414-4.9414 13.316 0.60938 1.2773 1.9102 2.6641 4.6484 3.2383-0.60547 0.070313-1.1953 0.11328-1.7617 0.11328-3.3906 0-6.0312-1.2344-7.4688-3.6289-2.3867-3.9648-1.1484-11.371 6.9922-18.977 6.6797-6.2383 11.309-10.223 16.336-13.938 0.41016 0.80469 0.36719 1.6328 0.32422 2.3125-0.015625 0.28906-0.03125 0.55078-0.003906 0.73828 0.046875 0.30469 0.30859 0.44922 1.2305 0.30078 3.6055-0.57812 4.5195-1.7617 4.2891-3.1953-0.15625-0.97266-0.80078-2.0938-1.5117-3.2305 0.70703-0.48438 1.4297-0.97266 2.1797-1.4727 0.29688-0.19531 0.375-0.59766 0.17969-0.89062-0.19531-0.29688-0.59766-0.375-0.89062-0.17969-0.74219 0.49219-1.4531 0.97656-2.1562 1.4531-1.2188-1.9492-2.2734-3.8633-1.2734-5.3789 0.46094-0.69922 0.20703-1.2031-0.082031-1.7734-0.5-0.98828-1.082-2.1367 0.55469-4.4336 1.1875-1.668-0.77344-3.0273-2.4219-4.1719-1.0469-0.72656-1.9844-1.3789-2.1211-2.0898-0.18359-0.94141 0.98437-1.7695 4.9766-2.543 3.4492-0.66797 3.418-1.9453 3.3906-3.1055-0.023437-0.87109-0.042969-1.6914 0.90625-2.2852v-0.003906c4.25-0.58203 8.8633-0.49609 13.152 0.27734 0.078125 0.015625 0.15234 0.007812 0.22656-0.003906l11.391 4.8711c0.16406 0.070313 0.24219 0.26172 0.17188 0.42578-0.042969 0.097657-0.125 0.16406-0.21875 0.1875l-15.48 13.184c-0.074218 0.074219-0.17969 0.10938-0.29297 0.089844l-7.6523-1.4727-2.7617 2.2266 7.5078 4.6016c0.0625 0.039062 0.11328 0.097656 0.13672 0.17188l2.957 8.4258 3.25-2.6016-0.89453-7.8672c-0.003906-0.035156-0.003906-0.066406 0-0.10156v-0.007812c0.015626-0.078125 0.058594-0.15234 0.12891-0.20312l16.52-12.004c0.14453-0.10547 0.34766-0.074219 0.45312 0.074219 0.035156 0.046874 0.054687 0.10547 0.058594 0.16016l3.3633 21.18 3.3555-2.6133 0.050781-9.6797c0.90625 1.9258 1.6406 3.9531 2.1758 6.0312z"/>
</svg>