<svg width="800" height="800" viewBox="0 0 800 800" fill="none" xmlns="http://www.w3.org/2000/svg">
<path d="M583 750L530 559L388.5 419" stroke="#FF0202" stroke-width="80" stroke-linecap="round" stroke-linejoin="round"/>
<path d="M388 419L430 199" stroke="#0000FF" stroke-width="80" stroke-linecap="round"/>
<path d="M135 625H315L381 416" stroke="#FF0202" stroke-width="80" stroke-linecap="round" stroke-linejoin="round"/>
<path d="M430 201L268 259L207.5 372.5" stroke="#FFFF00" stroke-width="80" stroke-linecap="round" stroke-linejoin="round"/>
<path d="M430 201L532 366L660.5 348" stroke="#82821A" stroke-width="80" stroke-linecap="round" stroke-linejoin="round"/>
<path d="M449.063 137.188C467.188 137.188 482.5 130.937 495.313 118.125C508.125 105.312 514.375 90.3126 514.375 73.1251C514.375 55.0001 508.125 39.6874 495.313 26.8749C482.5 14.0624 467.188 7.8125 449.063 7.8125C431.563 7.8125 416.563 14.0624 403.75 26.8749C390.938 39.6874 384.688 55.0001 384.688 73.1251C384.688 90.6251 390.938 105.625 403.75 118.125C416.875 130.937 431.875 137.188 449.063 137.188Z" fill="black"/>
</svg>
